<?xml version="1.0" encoding="utf-8"?>
<!-- Generator: Adobe Illustrator 23.0.6, SVG Export Plug-In . SVG Version: 6.00 Build 0)  -->
<svg version="1.1" id="Capa_1" xmlns="http://www.w3.org/2000/svg" xmlns:xlink="http://www.w3.org/1999/xlink" x="0px" y="0px"
	 width="260px" height="174px" viewBox="0 0 260 174" style="enable-background:new 0 0 260 174;" xml:space="preserve">
<style type="text/css">
	.st0{fill:#ac0c40;}
    .st1{fill:#343c47;}
</style>
<rect x="2.5" class="st0" width="22.8" height="98.1"/>
<polygon class="st0" points="257.4,0 257.4,98.1 234.6,98.1 234.6,44.7 219.5,74.3 204.3,44.7 204.3,98.1 181.5,98.1 181.5,0 
	204.3,0 219.5,30.5 234.6,0 "/>
<path class="st0" d="M145.7,6.3L143.9,0h-19.2l-1.8,6.3L96.4,98.1h22.8l4.3-15.1h21.3l4.3,15.1H172L145.7,6.3z M128.2,67l6-21l6,21
	H128.2z"/>
<polygon class="st0" points="67.1,23.1 67.1,44.7 89.9,44.7 89.9,67.8 67.1,67.8 67.1,98.1 44.2,98.1 44.2,0 104.4,0 104.4,23.1 "/>
<g>
  <!-- first polygon -->
  <polygon class="st0"
    points="109.1,174 0,136.3 71.3,111.2 93.5,130.7 68.9,142.6 88.1,152.2 157.8,124.2 170.2,130.1 131,164.4 130.5,164.6"/>
  <!-- second polygon -->
  <polygon class="st0"
    points="6.1,136.3 109,171.8 129.9,162.7 166.5,130.7 157.7,126.5 88,154.5 64.3,142.7 89.9,130.3 70.9,113.5"/>
</g>
<g>
  <polygon class="st1" points="88,154.4 64.3,142.6 102.2,124.3 132.7,136.5"/>
  <polygon class="st1" points="68.8,142.6 88,152.2 127.2,136.5 102.2,126.5"/>
</g>
<g>
  <polygon class="st1" points="150.9,174 127.5,163.8 130,162.7 151.4,143.9 151.5,143.9 188.7,111.1 260,136.2"/>
  <polygon class="st1" points="132,163.6 151,171.8 253.9,136.3 189.1,113.4 151.8,146.3 151.7,146.3"/>
</g>
</svg>
